{"title":"Abandon.2002.720p.WEB-DL.DD5.1.H264-FGT","uid":12018547,"size":3188303032,"categoryP":"video","categoryS":"hd___movies","magnet":"?xt=urn:btih:f0f75b48242dd7040a8f7a286fefbf145d1f092d&amp;dn=Abandon.2002.720p.WEB-DL.DD5.1.H264-FGT&amp;tr=udp%3A%2F%2Ftracker.openbittorrent.com%3A80&amp;tr=udp%3A%2F%2Fopen.demonii.com%3A1337&amp;tr=udp%3A%2F%2Ftracker.coppersurfer.tk%3A6969&amp;tr=udp%3A%2F%2Fexodus.desync.com%3A6969","seeders":0,"leechers":1,"uploader":null,"files":3,"time":1434358930,"description":"Video\nID                                       : 1\nFormat                                   : AVC\nFormat/Info                              : Advanced Video Codec\nFormat profile                           : &lt;a class=&quot;__cf_email__&quot; href=&quot;/cdn-cgi/l/email-protection&quot; data-cfemail=&quot;de96b7b9b69e92edf0ef&quot;&gt;[email&amp;#160;protected]&lt;/a&gt;&lt;script data-cfhash='f9e31' type=&quot;text/javascript&quot;&gt;\n/* &lt;![CDATA[ */!function(){try{var t=&quot;currentScript&quot;in document?document.currentScript:function(){for(var t=document.getElementsByTagName(&quot;script&quot;),e=t.length;e--;)if(t[e].getAttribute(&quot;data-cfhash&quot;))return t[e]}();if(t&amp;&amp;t.previousSibling){var e,r,n,i,c=t.previousSibling,a=c.getAttribute(&quot;data-cfemail&quot;);if(a){for(e=&quot;&quot;,r=parseInt(a.substr(0,2),16),n=2;a.length-n;n+=2)i=parseInt(a.substr(n,2),16)^r,e+=String.fromCharCode(i);e=document.createTextNode(e),c.parentNode.replaceChild(e,c)}t.parentNode.removeChild(t);}}catch(u){}}()/* ]]&gt; */&lt;/script&gt;\nFormat settings, CABAC                   : No\nFormat settings, ReFrames                : 2 frames\nCodec ID                                 : V_MPEG4/ISO/AVC\nDuration                                 : 1h 38mn\nBit rate                                 : 3 841 Kbps\nWidth                                    : 1 280 pixels\nHeight                                   : 546 pixels\nDisplay aspect ratio                     : 2.35:1\nFrame rate mode                          : Constant\nFrame rate                               : 23.976 fps\nColor space                              : YUV\nChroma subsampling                       : 4:2:0\nBit depth                                : 8 bits\nScan type                                : Progressive\nBits/(Pixel*Frame)                       : 0.229\nStream size                              : 2.65 GiB (89%)\nTitle                                    : Abandon.2002.720p.WEB-DL.DD5.1.H264-FGT\nLanguage                                 : English\nDefault                                  : Yes\nForced                                   : No\nColor range                              : Limited\nColor primaries                          : BT.709\nTransfer characteristics                 : BT.709\nMatrix coefficients                      : BT.709\n\nAudio\nID                                       : 2\nFormat                                   : AC-3\nFormat/Info                              : Audio Coding 3\nMode extension                           : CM (complete main)\nFormat settings, Endianness              : Big\nCodec ID                                 : A_AC3\nDuration                                 : 1h 38mn\nBit rate mode                            : Constant\nBit rate                                 : 384 Kbps\nChannel(s)                               : 6 channels\nChannel positions                        : Front: L C R, Side: L R, LFE\nSampling rate                            : 48.0 KHz\nBit depth                                : 16 bits\nCompression mode                         : Lossy\nStream size                              : 271 MiB (9%)\nTitle                                    : Abandon.2002.720p.WEB-DL.DD5.1.H264-FGT\nLanguage                                 : English\nDefault                                  : Yes\nForced                                   : No\n\nText\nID                                       : 3\nFormat                                   : UTF-8\nCodec ID                                 : S_TEXT/UTF8\nCodec ID/Info                            : UTF-8 Plain Text\nLanguage                                 : English\nDefault                                  : Yes\nForced                                   : No\n\nMenu\n00:00:00.000                             : en:Logos\n00:00:36.000                             : en:The Recruiters Come to College\n00:02:34.000                             : en:Handler Gets a New Case\n00:08:57.000                             : en:How Do I Look?\n00:12:32.000                             : en:The Interview\n00:17:50.000                             : en:Around the World Party\n00:21:09.000                             : en:Strobing\n00:23:59.000                             : enursued By Men\n00:29:01.000                             : en:Nontraditional Space\n00:32:59.000                             : en:Maybe It Was A Cat?\n00:37:01.000                             : en:Snow Dreams\n00:40:40.000                             : en:Handler Asks More Questions\n00:43:45.000                             : en:Haunted Katie\n00:45:14.000                             : en:Unquiet Americans\n00:51:51.000                             : en:The Value of What's Here.\n00:56:21.000                             : en:Bugs To A Bug Lamp\n01:02:20.000                             : en:The Country House\n01:08:29.000                             : en:Are You Happy? You Seem Happy.\n01:12:37.000                             : en:Handler Takes Her Hand\n01:17:38.000                             : en:A Clue!\n01:21:38.000                             : en:Katie Gets the Prize\n01:25:17.000                             : en:Thrill-Free Thriller\n01:29:22.000                             : en:I'm This Close to Making Partner.\n01:32:57.000                             : en:Credits","torrent":{"xt":"urn:btih:f0f75b48242dd7040a8f7a286fefbf145d1f092d","amp;dn":"Abandon.2002.720p.WEB-DL.DD5.1.H264-FGT","amp;tr":["udp%3A%2F%2Ftracker.openbittorrent.com%3A80","udp%3A%2F%2Fopen.demonii.com%3A1337","udp%3A%2F%2Ftracker.coppersurfer.tk%3A6969","udp%3A%2F%2Fexodus.desync.com%3A6969"],"infoHash":"f0f75b48242dd7040a8f7a286fefbf145d1f092d","infoHashBuffer":{"type":"Buffer","data":[240,247,91,72,36,45,215,4,10,143,122,40,111,239,191,20,93,31,9,45]},"announce":[],"urlList":[]}}